<?xml version="1.0" encoding="UTF-8"?>
<!DOCTYPE svg PUBLIC "-//W3C//DTD SVG 1.1//EN" "http://www.w3.org/Graphics/SVG/1.1/DTD/svg11.dtd">
<!-- Creator: CorelDRAW 2017 -->
<svg xmlns="http://www.w3.org/2000/svg" xml:space="preserve" width="512px" height="512px" version="1.1" style="shape-rendering:geometricPrecision; text-rendering:geometricPrecision; image-rendering:optimizeQuality; fill-rule:evenodd; clip-rule:evenodd"
viewBox="0 0 512 512"
 xmlns:xlink="http://www.w3.org/1999/xlink">
 <defs>
  <style type="text/css">
   <![CDATA[
    .fil3 {fill:#EBECEC}
    .fil0 {fill:#D9DADA}
    .fil4 {fill:#254481}
    .fil5 {fill:#4C679B}
    .fil1 {fill:#DC1D1D}
    .fil2 {fill:#F45353}
   ]]>
  </style>
 </defs>
 <g id="Слой_x0020_1">
  <metadata id="CorelCorpID_0Corel-Layer"/>
  <path class="fil0" d="M354 145l-3 -1c-42,-11 -76,-27 -116,-41 -50,-18 -82,-21 -135,-15l38 85 2 4 204 60 45 8 -36 -100zm5 0l-2 1 2 -1z"/>
  <path class="fil1" d="M373 319l-234 -63 35 90 2 1c37,10 73,23 110,34 45,13 77,18 125,16l-38 -78z"/>
  <path class="fil2" d="M139 256l-5 -1 -126 33c-1,15 -5,59 -2,70 4,17 21,1 38,-6 44,-19 84,-15 130,-7l2 1 -2 -1 -35 -90z"/>
  <path class="fil3" d="M100 88c-14,3 -64,14 -73,24 -9,9 -7,28 -8,40 -1,16 -4,41 -5,57l126 -31 -40 -89z"/>
  <path class="fil3" d="M385 244l78 -2c-2,-15 0,-48 -1,-63 -2,-19 -11,-31 -29,-29 -33,4 -40,0 -73,-5l-11 -2 37 101z"/>
  <path class="fil4" d="M345 237l-3 -1c-42,-11 -76,-27 -116,-41 -50,-18 -82,-21 -135,-15l42 78 5 1 234 63 20 1 -48 -84zm5 0l-2 1 2 -1z"/>
  <path class="fil5" d="M91 179c-14,3 -64,14 -73,24 -9,9 -7,28 -8,40 -1,16 -2,31 -2,47l126 -33 -42 -78z"/>
  <path class="fil5" d="M391 325l85 -19c-2,-15 -4,-31 -5,-46 -2,-19 -8,-22 -26,-20 -18,2 -92,-1 -107,-7l3 5 50 86z"/>
  <path class="fil2" d="M411 397c14,-2 59,-10 67,-20 7,-8 3,-24 2,-34 -1,-13 -3,-26 -4,-38l-83 15 -20 -1 38 78z"/>
 </g>
</svg>
