<?xml version="1.0" standalone="no"?>
<!DOCTYPE svg PUBLIC "-//W3C//DTD SVG 20010904//EN"
 "http://www.w3.org/TR/2001/REC-SVG-20010904/DTD/svg10.dtd">
<svg version="1.0" xmlns="http://www.w3.org/2000/svg"
 width="920.000000pt" height="920.000000pt" viewBox="0 0 920.000000 920.000000"
 preserveAspectRatio="xMidYMid meet">
<metadata>
Created by potrace 1.14, written by Peter Selinger 2001-2017
</metadata>
<g transform="translate(0.000000,920.000000) scale(0.100000,-0.100000)"
fill="#000000" stroke="none">
<path d="M2230 5933 c-573 -31 -1241 -190 -1925 -457 l-140 -54 -6 -89 c-4
-48 -9 -149 -13 -223 -4 -74 -11 -216 -16 -315 -5 -99 -12 -227 -15 -285 -3
-58 -10 -188 -15 -290 -5 -102 -12 -237 -15 -300 -3 -63 -7 -151 -10 -195 -3
-44 -7 -147 -10 -230 -3 -82 -8 -186 -10 -230 -3 -44 -7 -134 -10 -200 -3 -66
-8 -169 -10 -230 -25 -512 -34 -739 -30 -743 2 -3 35 18 72 46 516 380 1118
609 1708 649 159 11 500 8 645 -6 548 -53 1023 -172 2130 -536 1136 -373 1661
-504 2285 -570 179 -19 642 -27 810 -14 496 37 947 148 1413 347 126 53 132
57 128 82 -3 14 -8 50 -11 80 -20 206 -139 1311 -155 1447 -11 93 -23 188 -25
213 -3 25 -8 59 -10 75 -2 17 -11 89 -19 160 -9 72 -18 148 -21 170 -16 128
-25 207 -31 265 -4 36 -8 67 -9 70 -3 5 -18 151 -18 178 0 15 -13 15 -117 -3
-105 -18 -360 -50 -540 -67 -210 -20 -903 -17 -1100 5 -611 69 -1092 191
-1750 445 -86 33 -332 132 -546 221 -741 305 -1117 430 -1524 510 -335 66
-741 93 -1090 74z"/>
</g>
</svg>
